<?xml version="1.0" encoding="iso-8859-1"?>
<!-- Uploaded to: SVG Repo, www.svgrepo.com, Generator: SVG Repo Mixer Tools -->
<!DOCTYPE svg PUBLIC "-//W3C//DTD SVG 1.1//EN" "http://www.w3.org/Graphics/SVG/1.1/DTD/svg11.dtd">
<svg fill="#000000" height="800px" width="800px" version="1.1" id="Capa_1" xmlns="http://www.w3.org/2000/svg" xmlns:xlink="http://www.w3.org/1999/xlink" 
	 viewBox="0 0 58.526 58.526" xml:space="preserve">
<path d="M54.557,35.64h-1.144c0.196-0.323,0.387-0.646,0.558-0.958c1.757-2.988,2.727-6.446,2.804-10.003l0.005-0.464
	c0-5.182-1.854-10.059-5.218-13.732C48.174,6.786,43.663,4.75,38.86,4.75c-3.75,0-7.437,1.297-10.471,3.668
	C25.355,6.047,21.669,4.75,17.919,4.75c-4.803,0-9.313,2.036-12.701,5.732C1.854,14.155,0,19.032,0,24.214l0.005,0.464
	c0.077,3.556,1.047,7.015,2.789,9.977c1.615,2.946,3.944,5.827,6.921,8.561c2.346,2.154,5.102,4.228,8.192,6.165l0.825,0.524
	c2.558,1.633,6.06,3.871,9.657,3.871s7.1-2.237,9.657-3.871l0.825-0.524c0.514-0.322,1.02-0.65,1.518-0.981v1.407
	c0,2.189,1.781,3.97,3.971,3.97c2.188,0,3.97-1.781,3.97-3.97V43.58h6.227c2.188,0,3.97-1.781,3.97-3.97S56.745,35.64,54.557,35.64z
	 M37.81,47.687l-0.84,0.533c-2.48,1.584-5.566,3.556-8.58,3.556s-6.1-1.972-8.58-3.556l-0.84-0.533
	c-2.987-1.873-5.646-3.872-7.901-5.943c-2.816-2.586-5.01-5.295-6.535-8.076c-1.585-2.694-2.459-5.817-2.528-9.031L2,24.214
	c0-4.681,1.666-9.078,4.692-12.38C9.697,8.555,13.684,6.75,17.919,6.75c3.545,0,7.031,1.321,9.818,3.719
	c0.375,0.323,0.93,0.323,1.305,0c2.787-2.398,6.273-3.719,9.818-3.719c4.235,0,8.222,1.805,11.227,5.083
	c3.026,3.303,4.692,7.7,4.692,12.381l-0.005,0.423c-0.069,3.214-0.943,6.337-2.543,9.057c-0.352,0.643-0.755,1.296-1.191,1.946
	H48.33v-6.227c0-2.189-1.781-3.97-3.97-3.97c-2.189,0-3.971,1.781-3.971,3.97v6.227h-6.227c-2.188,0-3.97,1.781-3.97,3.97
	s1.781,3.97,3.97,3.97h6.227v2.399C39.562,46.556,38.697,47.131,37.81,47.687z M54.557,41.58H47.33c-0.553,0-1,0.448-1,1v7.227
	c0,1.086-0.884,1.97-1.97,1.97c-1.087,0-1.971-0.884-1.971-1.97V42.58c0-0.552-0.447-1-1-1h-7.227c-1.086,0-1.97-0.884-1.97-1.97
	c0-1.086,0.884-1.97,1.97-1.97h7.227c0.553,0,1-0.448,1-1v-7.227c0-1.086,0.884-1.97,1.971-1.97c1.086,0,1.97,0.884,1.97,1.97v7.227
	c0,0.552,0.447,1,1,1h7.227c1.086,0,1.97,0.884,1.97,1.97C56.526,40.696,55.643,41.58,54.557,41.58z"/>
</svg>