<?xml version="1.0" encoding="iso-8859-1"?>
<!-- Uploaded to: SVG Repo, www.svgrepo.com, Generator: SVG Repo Mixer Tools -->
<svg fill="#000000" height="800px" width="800px" version="1.1" id="Layer_1" xmlns="http://www.w3.org/2000/svg" xmlns:xlink="http://www.w3.org/1999/xlink" 
	 viewBox="0 0 512 512" xml:space="preserve">
<g>
	<g>
		<path d="M510.356,154.156l-29.923-62.335l29.923-62.335c2.483-5.172,2.136-11.26-0.92-16.116
			c-3.056-4.858-8.392-7.805-14.131-7.805H116.87C50.243,5.565,0,34.275,0,72.348v367.304c0,38.073,50.243,66.783,116.87,66.783
			c56.466,0,101.158-20.622,113.478-50.087h264.957c5.739,0,11.075-2.946,14.131-7.805c3.056-4.856,3.404-10.943,0.92-16.116
			l-29.923-62.336l29.923-62.335c2.192-4.567,2.193-9.882,0-14.448l-29.924-62.353l29.924-62.352
			C512.549,164.036,512.548,158.721,510.356,154.156z M200.348,317.218c0,13.615-32.52,33.391-83.478,33.391
			c-50.958,0-83.478-19.777-83.478-33.391v-74.801c20.893,11.957,50.134,19.149,83.478,19.149s62.585-7.191,83.478-19.149V317.218z
			 M116.87,105.739c-50.958,0-83.478-19.777-83.478-33.391s32.52-33.391,83.478-33.391c50.958,0,83.478,19.777,83.478,33.391
			S167.828,105.739,116.87,105.739z M446.861,377.316l21.909,45.64H233.739V317.218h235.036l-21.914,45.649
			C444.669,367.435,444.669,372.75,446.861,377.316z M233.739,144.696V72.348c0-12.333-5.278-23.681-14.671-33.391h249.701
			l-21.908,45.639c-2.192,4.567-2.192,9.883,0.001,14.45l21.914,45.65H233.739z"/>
	</g>
</g>
</svg>