<?xml version="1.0" encoding="iso-8859-1"?>
<!-- Uploaded to: SVG Repo, www.svgrepo.com, Generator: SVG Repo Mixer Tools -->
<svg fill="#000000" height="800px" width="800px" version="1.1" id="Layer_1" xmlns="http://www.w3.org/2000/svg" xmlns:xlink="http://www.w3.org/1999/xlink" 
	 viewBox="0 0 512 512" xml:space="preserve">
<g>
	<g>
		<path d="M473.043,183.652c0-46.032-37.446-83.478-83.478-83.478c-17.749,0-34.639,5.569-48.59,15.568
			c-0.923-5.032-1.497-10.229-1.497-15.568c0-38.919,28.88-72.06,29.142-72.353C378.19,17.125,370.617,0,356.174,0H155.826
			c-14.443,0-22.016,17.125-12.446,27.821c0.283,0.326,29.142,33.076,29.142,72.353c0,5.324-0.577,10.522-1.509,15.558
			c-13.948-9.994-30.835-15.558-48.578-15.558c-46.032,0-83.478,37.446-83.478,83.478c0,35.969,22.674,66.827,55.117,78.474
			c-3.103,12.088-5.03,24.967-5.03,38.396c0,18.15,3.546,35.985,8.826,52.739l77.609-112.316c6.698-9.699,21.098-9.583,27.63,0.228
			L256,320.511l52.892-79.337c6.44-9.671,20.835-10.08,27.63-0.228l77.609,112.316c5.279-16.756,8.825-34.59,8.825-52.74
			c0-13.432-1.948-26.297-5.054-38.387C450.359,250.496,473.043,219.63,473.043,183.652z M143.761,172.109
			c-1.406,1.471-22.817,24.211-38.433,58.473c-19.387-7.02-32.979-25.392-32.979-46.929c0-27.619,22.468-50.087,50.087-50.087
			c13.971,0,27.008,5.828,36.396,15.804C151.413,163.247,143.75,172.109,143.761,172.109z M255.838,256.332
			c-9.217,0-16.869-7.635-16.869-16.858c0-9.223,7.651-16.865,16.869-16.865c9.218,0,16.858,7.641,16.858,16.864
			S265.055,256.332,255.838,256.332z M310.932,66.783H201.068c-3.563-12.668-8.621-24.036-13.764-33.391h137.392
			C319.554,42.746,314.495,54.115,310.932,66.783z M406.685,230.577c-14.976-32.857-35.291-55.11-38.174-58.18
			c-1.011-1.164-8.35-9.825-15.397-22.972c9.394-10.011,22.453-15.86,36.451-15.86c27.619,0,50.087,22.468,50.087,50.087
			C439.652,205.185,426.065,223.554,406.685,230.577z"/>
	</g>
</g>
<g>
	<g>
		<path d="M144.489,445.217c9.443,16.636,13.815,25.62,20.566,39.092c8.533,17.082,25.707,27.69,44.804,27.69h92.282
			c19.098,0,36.272-10.608,44.804-27.685c5.614-11.283,11.291-22.786,20.549-39.098H144.489z"/>
	</g>
</g>
<g>
	<g>
		<path d="M323.033,280.163l-53.142,79.706c-6.195,9.294-21.588,9.294-27.783,0l-53.141-79.706L112.88,390.281
			c3.868,7.798,7.844,14.973,11.77,21.545h262.698c3.927-6.574,7.903-13.748,11.77-21.545L323.033,280.163z M189.055,378.766
			c-9.217,0-16.869-7.635-16.869-16.858c0-9.223,7.651-16.865,16.869-16.865c9.218,0,16.858,7.641,16.858,16.864
			C205.913,371.13,198.272,378.766,189.055,378.766z M322.62,378.766c-9.217,0-16.869-7.635-16.869-16.858
			c0-9.223,7.651-16.865,16.869-16.865s16.858,7.641,16.858,16.864C339.478,371.13,331.837,378.766,322.62,378.766z"/>
	</g>
</g>
</svg>